<svg width="126" height="192" viewBox="0 0 126 192" fill="none" xmlns="http://www.w3.org/2000/svg">
<path fill-rule="evenodd" clip-rule="evenodd" d="M96.1087 29.1893C83.3103 30.5101 86.9203 41.0543 73.2479 52.3711C64.7169 59.4028 58.8105 63.0247 52.2479 68.1915C37.3735 79.9471 28.9501 93.3489 29.2795 113.123C32.778 81.2638 58.3735 66.3225 68.8728 58.5209C53.6704 71.9227 46.6695 83.0193 42.1855 92.1402C32.669 111.472 32.2321 125.755 51.374 139.926C59.2502 145.641 70.1865 152.559 72.0459 168.489C67.3414 160.359 56.7319 151.352 47.9831 148.824C66.0306 162.778 74.4526 173.431 71.7178 192C65.6998 166.514 35.951 158.714 22.0595 136.849C-10.4254 81.812 51.0432 71.9227 68.7626 45.4487C49.9501 64.1267 23.3717 68.7398 10.6849 96.3117C17.9022 68.1915 28.6207 59.6229 36.9325 53.3596C51.4815 42.7019 66.7929 39.1853 73.7924 19.1947C62.2 39.08 51.1535 39.9578 34.5272 51.1597C21.2931 60.0618 8.60488 73.7931 5.32427 104.88C-8.78236 75.2178 7.29536 33.6931 28.4043 15.1286C50.2795 -4.09771 77.4038 -7.94241 99.8263 21.0597C129.141 38.4169 139.64 77.7472 100.484 126.963C128.702 87.1935 122.358 52.1509 105.733 37.9767C125.312 66.5399 112.953 93.4569 101.468 117.296C94.3582 132.015 96.4368 135.311 102.671 150.254C91.4042 140.364 94.4657 131.246 82.4363 121.361C74.2335 114.768 64.0608 110.703 57.1688 103.233C53.4499 99.0571 52.2479 94.5548 57.1688 83.4568C59.7947 77.8566 62.6383 76.8681 65.8087 78.9531C68.7626 81.0423 78.6071 89.8296 79.9207 82.3589C80.2488 80.2698 79.8118 79.0625 82.1055 78.0753C83.637 77.4163 85.1684 77.7458 84.7314 75.5473C84.5122 74.4494 84.8403 74.0105 86.1525 73.7917C87.684 73.4622 87.5751 72.914 87.3559 71.1543C86.6998 66.8694 90.0893 67.419 92.1693 66.76C94.1363 66.101 94.1363 64.5655 93.5904 62.8045C93.2624 61.8174 93.0445 60.8289 92.7165 59.8417C91.7309 56.3251 91.622 54.0172 92.0604 51.6027L95.8868 51.1597L92.4973 49.843C95.4499 42.5911 97.6374 39.2988 96.1074 29.1907L96.1087 29.1893ZM104.968 54.0172C106.936 62.8045 106.17 72.0362 103.982 80.4954C100.156 95.1044 93.9198 100.047 90.9673 117.846C91.8412 99.0585 97.5299 92.9086 101.358 79.5027C103.436 72.255 104.749 63.9065 104.968 54.0172ZM46.6695 8.31692C19.7644 20.9489 5.10783 51.3784 4.67087 80.7141C10.2493 52.0415 19.3274 27.4324 46.6695 8.31692Z" fill="#FFA3D1"/>
</svg>
